<svg height="1240" viewBox="0 0 1240 1240" width="1240" xmlns="http://www.w3.org/2000/svg"><g fill="none" fill-rule="evenodd" stroke="#000000" stroke-width="50" transform="translate(216 345)"><path d="m166.25314 548.665684c-92.711674-5.33379-166.25314-82.399295-166.25314-176.685486 0-73.660657 44.885625-136.810764 108.731093-163.457892-.49271-5.607664-.744294-11.28471-.744294-17.020656 0-105.763441 85.535038-191.50165 191.047854-191.50165 69.506676 0 130.343937 37.206345 163.771131 92.83387 20.831558-11.16919 44.642756-17.503837 69.93349-17.503837 81.853886 0 148.209571 66.355685 148.209571 148.209571 0 3.944219-.154071 7.852452-.456524 11.71901 72.069038 14.844686 126.256849 78.652208 126.256849 155.115973 0 86.429963-69.233917 156.689476-155.267947 158.344727-.513156.239397-1.085536.373095-1.689144.373095h-482.719472c-.339012 0-.638624-.168697-.819467-.426725z"/><path d="m166.25314 548.665684c-92.711674-5.33379-166.25314-82.399295-166.25314-176.685486 0-73.660657 44.885625-136.810764 108.731093-163.457892-.49271-5.607664-.744294-11.28471-.744294-17.020656 0-105.763441 85.535038-191.50165 191.047854-191.50165 69.506676 0 130.343937 37.206345 163.771131 92.83387 20.831558-11.16919 44.642756-17.503837 69.93349-17.503837 81.853886 0 148.209571 66.355685 148.209571 148.209571 0 3.944219-.154071 7.852452-.456524 11.71901 72.069038 14.844686 126.256849 78.652208 126.256849 155.115973 0 86.429963-69.233917 156.689476-155.267947 158.344727-.513156.239397-1.085536.373095-1.689144.373095h-482.719472c-.339012 0-.638624-.168697-.819467-.426725z"/><g stroke-linecap="round" transform="matrix(1 0 0 -1 300.393822 451)"><path d="m0 221 102.5-104.100386 102.5 104.100386" stroke-linejoin="round" transform="matrix(1 0 0 -1 0 337.899614)"/><path d="m102.5 196.254826v-196.254826"/></g></g></svg>