<svg width="16" height="16" viewBox="0 0 16 16" fill="none" xmlns="http://www.w3.org/2000/svg"><path d="M8 16C12.4183 16 16 12.4183 16 8C16 3.58172 12.4183 0 8 0C3.58172 0 0 3.58172 0 8C0 12.4183 3.58172 16 8 16Z" fill="#57A300"></path><path d="M3.55311 8.29156C3.47911 8.21256 3.44111 8.10856 3.44511 8.00056C3.44911 7.89156 3.49511 7.79156 3.57511 7.71656L4.41011 6.94456C4.48611 6.87556 4.58311 6.83756 4.68411 6.83756C4.79611 6.83756 4.90411 6.88456 4.98011 6.96656L7.11611 9.25856L10.9231 4.38356C11.0001 4.28456 11.1161 4.22656 11.2421 4.22656C11.3321 4.22656 11.4171 4.25556 11.4891 4.31056L12.3951 5.00956C12.5681 5.13756 12.6051 5.38656 12.4751 5.56356L7.60711 11.7966C7.41811 12.0386 7.05711 12.0546 6.84711 11.8296L3.55311 8.29156Z" fill="white"></path></svg>