<?xml version="1.0" encoding="UTF-8"?>
<svg id="content" xmlns="http://www.w3.org/2000/svg" width="800" height="230" viewBox="0 0 800 230">
  <defs>
    <style>
      .cls-1 {
        fill: #e55a7f;
      }

      .cls-2 {
        fill: #fff;
      }

      .cls-3 {
        fill: #ffcd5f;
      }

      .cls-4 {
        fill: #f25159;
      }

      .cls-5 {
        fill: #427ab7;
      }
    </style>
  </defs>
  <g>
    <path class="cls-2" d="m797.45,117.06l-1.55-2.05c2.06-3.28,3.22-7.14,3.22-11.2,0-11.64-9.47-21.1-21.1-21.1s-21.1,9.47-21.1,21.1c0,4.07,1.16,7.93,3.22,11.2l-.77,1.02c-2.19-4-4.97-7.76-8.35-11.14-1.99-1.99-4.13-3.78-6.38-5.38,4.1-2.13,7.26-5.83,8.66-10.31,7.09-2.21,12.25-8.83,12.25-16.64s-5.16-14.43-12.25-16.64c-2.21-7.09-8.83-12.25-16.64-12.25s-14.43,5.16-16.64,12.25c-3.68,1.15-6.84,3.5-9.03,6.57v-1.4c0-9.61-7.82-17.43-17.43-17.43s-17.43,7.82-17.43,17.43v56.11c0,.56.03,1.14.09,1.71.02.26.06.51.1.77,0,0,0,.01,0,.02.04.3.09.6.15.92.05.27.12.54.19.84.06.26.13.53.22.8.08.27.17.54.28.82.1.27.2.54.31.82.1.25.21.49.33.73.12.27.25.53.39.79,0,.02.02.04.03.05.12.22.25.44.38.67.15.26.31.51.47.76.16.24.34.48.51.71.16.22.33.44.49.64.73.89,1.54,1.7,2.41,2.41.21.17.41.33.63.49.24.18.49.36.75.54.24.16.48.31.72.45.25.15.5.3.76.44.13.07.27.14.41.2-.52,2.25-.8,4.59-.8,6.99s.28,4.74.8,6.99c-1.63.82-3.17,1.9-4.53,3.26-6.79,6.79-6.79,17.85,0,24.64,9.31,9.31,21.7,14.43,34.89,14.43s25.58-5.13,34.89-14.43c10.36-10.36,15.13-24.23,14.33-37.82,1.07.29,2.18.45,3.3.45.59,0,1.19-.04,1.79-.13,1.15-.16,2.26-.47,3.3-.93,1.34.48,2.78.75,4.28.75s2.96-.27,4.3-.75c1.57.69,3.29,1.06,5.04,1.06,2.72,0,5.42-.9,7.6-2.54,2.69-2.03,4.44-4.99,4.91-8.33.47-3.34-.39-6.67-2.42-9.36Zm-86.47-34.43c2.19,3.08,5.34,5.43,9.03,6.57.15.49.33.97.52,1.43-1.46-.13-2.93-.2-4.41-.2-1.73,0-3.45.09-5.14.26v-8.07Z"/>
    <path class="cls-2" d="m21.1,115.96C9.47,115.96,0,125.43,0,137.07,0,139.97.59,142.76,1.67,145.3.61,147.15,0,149.3,0,151.58,0,157.28,3.8,162.11,9,163.68c1.57,5.2,6.4,9,12.1,9s10.54-3.8,12.1-9c5.2-1.56,9-6.4,9-12.1,0-2.28-.61-4.42-1.67-6.27,1.08-2.54,1.67-5.33,1.67-8.24,0-11.63-9.47-21.1-21.1-21.1Z"/>
    <path class="cls-2" d="m652.59,107.11l1.77-2.03s0,0,0,0c4.38-5.02,5.36-11.87,3.13-17.7,3.31-3.17,5.38-7.63,5.38-12.57,0-9.61-7.82-17.43-17.43-17.43h-24.18c-1.7-7.84-8.69-13.72-17.03-13.72s-15.33,5.89-17.03,13.72h-21.07c-9.61,0-17.43,7.82-17.43,17.43s7.82,17.43,17.43,17.43h4.63c-2.92,2.02-5.67,4.31-8.18,6.82-11.12,11.12-17.25,25.91-17.25,41.64s5.69,29.45,16.07,40.42l-9.74-.64c-.74-.05-1.46-.02-2.18.08-.69-.19-1.41-.31-2.13-.36l-2.8-.18c-1.58-.1-3.17.14-4.65.72l-4.3,1.69c-1.88.74-3.46,1.96-4.64,3.49-1.58-.58-3.27-.78-4.95-.6l-11.68,1.32c-1.51-1.64-3.39-2.79-5.39-3.47,17.35-8.42,29.34-26.22,29.34-46.76V61.1c0-9.61-7.82-17.43-17.43-17.43-3.06,0-5.93.79-8.43,2.18.2-.9.31-1.83.31-2.78,0-5.83-3.97-10.75-9.34-12.2v-.24c0-6.97-5.67-12.63-12.64-12.63-5.15,0-9.59,3.1-11.56,7.54-.91-6.53-6.52-11.56-13.29-11.56-1.57,0-3.08.27-4.48.77-1.4-.5-2.91-.77-4.49-.77s-3.07.27-4.47.77c-1.4-.5-2.91-.77-4.49-.77-1.43,0-2.81.23-4.1.64-1.27-.41-2.61-.63-4.01-.64-.05-7.36-6.05-13.33-13.42-13.33s-13.37,5.97-13.42,13.33c-1.56.01-3.05.29-4.44.79-1.39-.5-2.88-.78-4.44-.79-.05-7.36-6.05-13.33-13.42-13.33s-13.37,5.97-13.42,13.33c-1.56.01-3.05.29-4.44.79-1.39-.5-2.88-.78-4.44-.79-.05-7.36-6.05-13.33-13.42-13.33s-13.37,5.97-13.42,13.33c-1.48.01-2.9.26-4.23.71-1.35-.47-2.8-.71-4.31-.71s-3.08.27-4.48.77c-1.4-.5-2.91-.77-4.49-.77s-3.08.27-4.48.77c-1.4-.5-2.91-.77-4.48-.77-7.4,0-13.42,6.02-13.42,13.42s6.02,13.42,13.42,13.42c1.57,0,3.08-.27,4.48-.77,1.4.5,2.91.77,4.48.77s3.08-.27,4.49-.77c1.4.5,2.91.77,4.48.77s2.96-.25,4.31-.71c1.33.45,2.75.7,4.23.71,0,1.03.13,2.03.36,3h-24.49c-9.61,0-17.43,7.82-17.43,17.43,0,6.41,3.48,12.02,8.64,15.05v11.7c-5.17,3.03-8.64,8.64-8.64,15.05,0,7.02,4.18,13.08,10.17,15.84-4.06,3.19-6.67,8.14-6.67,13.7,0,8.44,6.03,15.49,14,17.09-.03.42-.05.84-.05,1.27,0,.74.05,1.47.14,2.18-5.98,1.16-10.88,5.4-12.98,10.99-.87-2.16-2.18-4.18-3.94-5.92l-16.5-16.21.99-1.14c.18-.21.36-.42.53-.63.22-.23.47-.51.72-.8,6.34-7.27,9.47-16.58,8.81-26.21-.55-7.98-3.65-15.39-8.84-21.3,7.94-1.62,13.93-8.66,13.93-17.07,0-9.61-7.82-17.43-17.43-17.43h-34.9c.78-2.13,1.16-4.2,1.16-6.23,0-12.31-10.02-22.33-22.33-22.33s-22.33,10.02-22.33,22.33c0,2.03.39,4.1,1.16,6.23h-30.69c-9.61,0-17.43,7.82-17.43,17.43,0,8.28,5.81,15.23,13.57,16.99-3.98,3.99-6.57,9.37-6.99,15.34-2.58.7-4.99,2-7.04,3.84-3.47,3.11-5.52,7.38-5.77,12.02-.25,4.65,1.32,9.12,4.42,12.58,5.94,6.63,13.66,11.08,22.2,12.89v22.13c0,5.15,2.25,9.79,5.82,12.99l-6.06.4c-.55.04-1.09.12-1.62.23-.71-.1-1.43-.13-2.16-.08l-15.59,1.02c-.64.04-1.26.14-1.86.29-.63-.07-1.28-.09-1.92-.05l-10.49.69c-5.69.37-10.11,5.1-10.11,10.8v7.03c0,5.7,4.43,10.43,10.12,10.8l19.48,1.27c.24.02.47.02.71.02.5,0,.99-.04,1.48-.1.69.19,1.4.31,2.12.36l17.76,1.16c.24.02.47.02.71.02.42,0,.84-.03,1.25-.08.76.22,1.54.37,2.35.43l17.76,1.16c.24.02.47.02.71.02.57,0,1.13-.05,1.68-.13.64.16,1.29.26,1.95.3l17.73,1.16c.24.02.47.02.71.02.5,0,.99-.04,1.47-.1.69.19,1.4.31,2.13.36l2.8.18c.23.02.47.02.7.02,1.35,0,2.69-.25,3.95-.75l4.3-1.69c1.88-.74,3.46-1.96,4.64-3.49,1.58.58,3.27.79,4.95.6l10.32-1.17c2.13,4.44,6.53,7.38,11.81,7.38,2.78,0,5.31-.81,7.4-2.22.15.09.29.18.42.25l.09.05c2.11,1.21,4.49,1.85,6.87,1.85,2.51,0,4.84-.69,6.82-1.9.33.16.65.33.99.48.07.03.13.06.2.08,2.34.97,4.97,1.48,7.6,1.48,1.42,0,2.8-.14,4.12-.41.38.07.77.13,1.16.17.54,1.26,1.28,2.45,2.26,3.51.02.02.03.03.05.05,2.53,2.73,6.1,4.29,9.8,4.29,3.88,0,7.58-1.69,10.44-4.75,1.75-1.87,3.26-3.86,4.59-5.93,3.1,1.96,6.91,3.06,11.19,3.06,3.67,0,6.98-.8,9.81-2.26,2.32,1.11,5.87,2.29,10.39,2.29,3.97,0,7.24-.87,9.84-2.32,3.71,1.93,7.6,2.28,9.9,2.28,4.86,0,9.27-1.5,12.43-4.21.04-.04.09-.08.13-.11.75-.67,1.43-1.39,2.01-2.14,2.29,3.84,6.47,6.37,11.34,6.37h.14c.23,0,.47,0,.7-.02,2.33-.15,4.45-.84,6.26-1.94,2.08,1.25,4.48,1.93,6.93,1.93,2.2,0,4.31-.53,6.19-1.52,3.28,1.38,6.54,1.65,8.57,1.65,3.62,0,7-.83,9.79-2.38.53.29,1.07.57,1.64.82.07.03.13.06.2.09,2.34.97,4.97,1.48,7.6,1.48,1.42,0,2.8-.14,4.12-.41,1.58.31,3.27.34,5,.07,1.33-.21,2.56-.62,3.69-1.18,1.97.98,4.14,1.51,6.34,1.51s4.36-.54,6.19-1.51c.02,0,.04.02.06.03,2.34.97,4.97,1.48,7.6,1.48,1.42,0,2.8-.14,4.12-.41,1.58.31,3.27.34,5,.07,4.25-.66,7.63-3.3,9.38-6.97l9.06,1.02c1.68.19,3.37-.02,4.95-.6,1.17,1.53,2.76,2.76,4.64,3.49l4.14,1.62c1.3.53,2.7.82,4.12.82.23,0,.47,0,.71-.02l20.42-1.33c.64-.04,1.26-.15,1.87-.3.4.04.8.07,1.2.07.23,0,.47,0,.7-.02l15.59-1.02c.73-.05,1.44-.17,2.13-.36.32.03.63.05.95.05.24,0,.47,0,.71-.02l15.58-1.02c.56-.04,1.11-.12,1.65-.24.47.06.95.11,1.43.11.23,0,.47,0,.7-.02l15.59-1.02c.64-.04,1.27-.15,1.88-.3.4.04.8.07,1.2.07.24,0,.47,0,.71-.02l10.49-.69c5.69-.37,10.11-5.1,10.11-10.8v-7.03c0-4.98-3.37-9.21-8.01-10.45,2.39-.86,4.57-2.24,6.42-4.08,20.39-20.39,22.64-52.3,6.72-75.24Zm-429.62,52.04c-5.48,6.28-5.63,15.41-.85,21.85l-5.65.37c-.64.04-1.26.15-1.87.29-.63-.07-1.27-.09-1.91-.05l-4.03.26c2.59-3.04,4.15-6.98,4.15-11.27v-28.27c3.01,2.26,6.67,3.49,10.46,3.49,4.06,0,7.97-1.42,11.06-3.96.37.35.74.69,1.12,1.02.32.28.65.55.98.82l-13.47,15.44Zm41.64,27.23l-9.17-1.04c-1.68-.19-3.37.02-4.95.6-.73-.96-1.63-1.79-2.65-2.46.49-.45.96-.92,1.4-1.42l12.01-13.78,9.46,9.3c-3.1,1.84-5.31,4.96-6.1,8.8ZM423.6,53.84c.92.21,1.87.31,2.85.31,7.37,0,13.37-5.97,13.42-13.33,1.4-.01,2.74-.23,4.01-.64,1.29.42,2.67.64,4.1.64,1.57,0,3.08-.27,4.49-.77,1.4.5,2.91.77,4.47.77s3.08-.27,4.49-.77c1.4.5,2.91.77,4.48.77,1.11,0,2.2-.14,3.24-.39,0,0,0,0,.01,0-.18.86-.29,1.74-.29,2.65,0,2.34.64,4.53,1.75,6.41-.84,1.38-1.38,2.87-1.64,4.39-2.75-6.01-8.82-10.2-15.85-10.2-9.61,0-17.43,7.82-17.43,17.43v12.64c-1.89-7.45-5.95-14.43-12.11-19.9,0,0,0,0,0,0Zm5.69,78.72c0-7.03-4.19-13.1-10.21-15.85,2.97-1.96,5.7-4.32,8.08-7.06,4.22-4.84,7.05-10.44,8.53-16.28v14.03c0,9.61,7.82,17.42,17.43,17.42s17.43-7.82,17.43-17.42v-44.96c.82,1.39,1.9,2.64,3.27,3.67,0,0,0,0,0,0,2.21,1.67,4.85,2.54,7.58,2.54.59,0,1.19-.04,1.78-.13,1.15-.16,2.26-.48,3.3-.93,1.34.48,2.78.75,4.28.75s2.96-.27,4.3-.75c1.58.69,3.29,1.06,5.04,1.06,1.13,0,2.24-.16,3.33-.46v68.23c0,9.43-7.67,17.1-17.1,17.1s-17.43,7.82-17.43,17.43c0,3.58,1.08,6.9,2.94,9.67-.42.58-.8,1.2-1.14,1.85-.35.02-.7.04-1.04.08-2.43-.43-4.95-.44-7.91.12-.03,0-.07.01-.1.02-2.14.43-4.12,1.21-5.91,2.26-2.85-1.71-6.28-2.68-10.05-2.68-1.92,0-3.75.25-5.47.71-3.48-4.59-8.17-6.35-11.93-7.02.64-1.81.99-3.75.99-5.78,0-8.47-6.07-15.55-14.09-17.11.09-.72.14-1.44.14-2.18,0-.43-.02-.85-.05-1.27,7.98-1.59,14-8.65,14-17.09Zm-25.63-88.24c.31-1.12.48-2.29.49-3.51,1.56-.01,3.05-.29,4.44-.79,1.39.5,2.88.78,4.44.79.02,2.7.83,5.21,2.23,7.31,0,0,0,0,0,0-3.65-1.87-7.56-3.14-11.61-3.8,0,0,0,0,0-.01Zm-35.23-3.51c1.56-.01,3.05-.29,4.44-.79,1.39.5,2.88.78,4.44.79.02,2.64.8,5.1,2.14,7.17,0,0,0,0,0,0-1.85.92-3.62,2-5.31,3.21-1.69-2.39-3.97-4.34-6.62-5.63.58-1.48.9-3.08.91-4.75Zm-63.63,135.9c.84,2.08,2.07,3.95,3.59,5.54-1.28.02-2.63.15-4.08.43-.03,0-.07.01-.1.02-.08.02-.15.04-.23.06-.38-.72-.81-1.4-1.31-2.04.9-1.26,1.61-2.61,2.13-4.01Zm316.43-19c-3.29,3.29-5.1,7.67-5.1,12.32,0,4.65,1.81,9.03,5.1,12.32,1.17,1.17,2.48,2.15,3.89,2.93l-7.25-.47c-.74-.05-1.46-.01-2.17.09-.69-.19-1.41-.32-2.13-.36l-17.76-1.16c-.66-.04-1.32-.02-1.96.06-.76-.22-1.54-.37-2.35-.43l-4.63-.3c.12-.12.25-.23.37-.35.34-.34.67-.7.99-1.08.14-.15.3-.31.46-.5l13.05-14.97c6.31-7.24,5.56-18.27-1.68-24.58-3.51-3.06-8-4.57-12.64-4.25-2.55.17-4.98.89-7.16,2.08.39-5.8,2.84-11.19,6.98-15.34,0,0,0,0,0,0,1.75,7.77,8.7,13.6,17,13.6s15.25-5.83,17-13.6c0,0,0,0,0,0,9.37,9.38,9.37,24.63,0,34.01Z"/>
    <path class="cls-2" d="m128.87,119.01c-2.09,0-4.1.37-5.96,1.05-2.48-4.3-5.89-8-9.97-10.8h29.33c9.61,0,17.43-7.82,17.43-17.43s-7.82-17.43-17.43-17.43h-65.02v-13.31c0-9.61-7.82-17.43-17.43-17.43s-17.43,7.82-17.43,17.43v13.31h-8.04c-9.61,0-17.43,7.82-17.43,17.43s7.82,17.43,17.43,17.43h8.04v27.18c0,28.64,23.3,51.95,51.95,51.95s51.95-23.3,51.95-51.95c0-9.61-7.82-17.43-17.43-17.43Z"/>
  </g>
  <g>
    <rect class="cls-1" x="246.47" y="190.93" width="3.88" height="18.96" transform="translate(448.81 -48) rotate(90)"/>
    <polygon class="cls-1" points="254.23 204.71 269.19 203.02 269.19 197.79 254.23 196.1 254.23 196.1 250.68 197.79 250.68 203.02 254.23 204.71 254.23 204.71"/>
    <polygon class="cls-1" points="237.6 209.97 237.6 209.97 241.91 208.28 241.91 192.53 237.6 190.84 237.6 190.84 237.6 190.84 237.6 209.97"/>
    <polygon class="cls-1" points="155.29 196.2 164.28 205.19 144.8 203.92 144.8 196.89 155.29 196.2"/>
    <polygon class="cls-1" points="174.66 194.94 186.35 206.63 168.59 205.47 159.08 195.96 174.66 194.94"/>
    <polygon class="cls-1" points="194.03 193.77 208.43 208.16 190.66 207 178.45 194.79 194.03 193.77 194.03 193.77"/>
    <polygon class="cls-1" points="213.4 192.41 230.5 209.51 212.73 208.35 212.73 208.35 197.81 193.43 213.4 192.41"/>
    <polygon class="cls-1" points="237.6 209.97 234.8 209.79 217.18 192.17 237.6 190.83 237.6 209.97"/>
  </g>
  <g>
    <rect class="cls-1" x="531.1" y="190.92" width="3.88" height="18.96" transform="translate(332.64 733.45) rotate(-90)"/>
    <polygon class="cls-1" points="527.22 196.1 512.26 197.79 512.26 203.02 527.22 204.7 527.22 204.7 530.77 203.02 530.77 197.79 527.22 196.1 527.22 196.1"/>
    <polygon class="cls-1" points="543.85 190.83 543.85 190.83 539.54 192.52 539.54 208.28 543.85 209.97 543.85 209.97 543.85 209.97 543.85 190.83"/>
    <polygon class="cls-1" points="626.16 204.61 617.17 195.62 636.65 196.89 636.65 203.92 626.16 204.61"/>
    <polygon class="cls-1" points="606.79 205.87 595.1 194.18 612.86 195.34 622.37 204.85 606.79 205.87"/>
    <polygon class="cls-1" points="587.42 207.04 573.02 192.65 590.79 193.81 603 206.02 587.42 207.04 587.42 207.04"/>
    <polygon class="cls-1" points="568.05 208.39 550.95 191.3 568.72 192.46 568.72 192.46 583.64 207.38 568.05 208.39"/>
    <polygon class="cls-1" points="543.85 190.83 546.65 191.02 564.27 208.64 543.85 209.97 543.85 190.83"/>
  </g>
  <path class="cls-5" d="m788.81,123.57l-7.55-10.02c4.09-1.36,7.04-5.21,7.04-9.75,0-5.67-4.61-10.28-10.28-10.28s-10.28,4.61-10.28,10.28c0,4.54,2.96,8.39,7.04,9.75l-7.55,10.02c-.6.8-.44,1.94.36,2.54.8.6,1.94.44,2.54-.36l6.08-8.07v6.67c0,1,.81,1.81,1.81,1.81s1.81-.81,1.81-1.81v-6.67l6.08,8.07c.36.47.9.72,1.45.72.38,0,.76-.12,1.09-.37.8-.6.96-1.74.36-2.54Zm-17.44-19.77c0-3.67,2.98-6.65,6.65-6.65s6.65,2.98,6.65,6.65-2.98,6.65-6.65,6.65-6.65-2.98-6.65-6.65Z"/>
  <path class="cls-1" d="m29.57,149.76h-6.65v-2.59c4.8-.86,8.47-5.06,8.47-10.11,0-5.67-4.61-10.28-10.28-10.28s-10.28,4.61-10.28,10.28c0,5.05,3.66,9.25,8.47,10.11v2.59h-6.65c-1,0-1.81.81-1.81,1.81s.81,1.81,1.81,1.81h6.65v6.65c0,1,.81,1.81,1.81,1.81s1.81-.81,1.81-1.81v-6.65h6.65c1,0,1.81-.81,1.81-1.81s-.81-1.81-1.81-1.81Zm-15.12-12.7c0-3.67,2.98-6.65,6.65-6.65s6.65,2.98,6.65,6.65-2.98,6.65-6.65,6.65-6.65-2.98-6.65-6.65Z"/>
  <path class="cls-3" d="m493.97,44.88h6.13c1,0,1.81-.81,1.81-1.81s-.81-1.81-1.81-1.81h-7.53v-10.62c0-1-.81-1.81-1.81-1.81s-1.81.81-1.81,1.81v10.62h-7.44c-1,0-1.81.81-1.81,1.81s.81,1.81,1.81,1.81h6.04l-7.57,10.05c-.6.8-.44,1.94.36,2.54.8.6,1.94.44,2.54-.36l6.08-8.07v6.67c0,1,.81,1.81,1.81,1.81s1.81-.81,1.81-1.81v-6.67l6.08,8.07c.36.47.9.72,1.45.72.38,0,.76-.12,1.09-.37.8-.6.96-1.74.36-2.54l-7.57-10.05Z"/>
  <path class="cls-4" d="m439.78,24.8h-10.73v-10.73c0-1.44-1.16-2.6-2.6-2.6s-2.6,1.16-2.6,2.6v10.73h-10.73c-1.44,0-2.6,1.16-2.6,2.6s1.16,2.6,2.6,2.6h10.73v10.73c0,1.44,1.16,2.6,2.6,2.6s2.6-1.16,2.6-2.6v-10.73h10.73c1.44,0,2.6-1.16,2.6-2.6s-1.16-2.6-2.6-2.6Z"/>
  <path class="cls-3" d="m404.06,24.8h-10.73v-10.73c0-1.44-1.16-2.6-2.6-2.6s-2.6,1.16-2.6,2.6v10.73h-10.73c-1.44,0-2.6,1.16-2.6,2.6s1.16,2.6,2.6,2.6h10.73v10.73c0,1.44,1.16,2.6,2.6,2.6s2.6-1.16,2.6-2.6v-10.73h10.73c1.44,0,2.6-1.16,2.6-2.6s-1.16-2.6-2.6-2.6Z"/>
  <path class="cls-5" d="m368.34,24.8h-10.73v-10.73c0-1.44-1.16-2.6-2.6-2.6s-2.6,1.16-2.6,2.6v10.73h-10.73c-1.44,0-2.6,1.16-2.6,2.6s1.16,2.6,2.6,2.6h10.73v10.73c0,1.44,1.16,2.6,2.6,2.6s2.6-1.16,2.6-2.6v-10.73h10.73c1.44,0,2.6-1.16,2.6-2.6s-1.16-2.6-2.6-2.6Z"/>
  <circle class="cls-1" cx="333.04" cy="27.4" r="2.6"/>
  <circle class="cls-1" cx="324.08" cy="27.4" r="2.6" transform="translate(75.55 237.18) rotate(-45)"/>
  <circle class="cls-1" cx="315.12" cy="27.4" r="2.6" transform="translate(72.92 230.85) rotate(-45)"/>
  <circle class="cls-1" cx="465.9" cy="27.4" r="2.6"/>
  <path class="cls-1" d="m456.94,24.8c-1.44,0-2.6,1.16-2.6,2.6s1.16,2.6,2.6,2.6,2.6-1.16,2.6-2.6-1.16-2.6-2.6-2.6Z"/>
  <path class="cls-1" d="m447.98,24.8c-1.44,0-2.6,1.16-2.6,2.6s1.16,2.6,2.6,2.6,2.6-1.16,2.6-2.6-1.16-2.6-2.6-2.6Z"/>
  <g>
    <path class="cls-1" d="m282.91,81.42h-107.91c-3.65,0-6.6-2.96-6.6-6.6s2.96-6.6,6.6-6.6h107.91c3.65,0,6.6,2.96,6.6,6.6s-2.96,6.6-6.6,6.6Z"/>
    <path class="cls-1" d="m645.44,81.42h-79.31c-3.65,0-6.6-2.96-6.6-6.6s2.96-6.6,6.6-6.6h79.31c3.65,0,6.6,2.96,6.6,6.6s-2.96,6.6-6.6,6.6Z"/>
    <path class="cls-5" d="m748.13,79.17h-22.94c-3.65,0-6.6-2.96-6.6-6.6s2.96-6.6,6.6-6.6h22.94c3.65,0,6.6,2.96,6.6,6.6s-2.96,6.6-6.6,6.6Z"/>
    <path class="cls-5" d="m397.9,157.53h-62.98c-3.65,0-6.6-2.96-6.6-6.6s2.96-6.6,6.6-6.6h62.98c3.65,0,6.6,2.96,6.6,6.6s-2.96,6.6-6.6,6.6Z"/>
    <path class="cls-1" d="m359.91,67.85h-42.45c-3.65,0-6.6-2.96-6.6-6.6s2.96-6.6,6.6-6.6h42.45c3.65,0,6.6,2.96,6.6,6.6s-2.96,6.6-6.6,6.6Z"/>
    <path class="cls-1" d="m351.36,109.64h-33.9c-3.65,0-6.6-2.96-6.6-6.6s2.96-6.6,6.6-6.6h33.9c3.65,0,6.6,2.96,6.6,6.6s-2.96,6.6-6.6,6.6Z"/>
    <path class="cls-1" d="m351.9,121.01c-3.65,0-6.6-2.96-6.6-6.6v-51.41c0-3.65,2.96-6.6,6.6-6.6s6.6,2.96,6.6,6.6v51.41c0,3.65-2.96,6.6-6.6,6.6Z"/>
    <path class="cls-1" d="m326.1,109.64c-3.65,0-6.6-2.96-6.6-6.6v-40.04c0-3.65,2.96-6.6,6.6-6.6s6.6,2.96,6.6,6.6v40.04c0,3.65-2.96,6.6-6.6,6.6Z"/>
    <path class="cls-5" d="m226.85,39.66c-6.35,0-11.51,5.15-11.51,11.5s11.51,15.99,11.51,15.99c0,0,11.51-9.64,11.51-15.99s-5.15-11.5-11.51-11.5Zm0,17.12c-3.1,0-5.62-2.52-5.62-5.62s2.52-5.62,5.62-5.62,5.62,2.52,5.62,5.62-2.52,5.62-5.62,5.62Z"/>
    <path class="cls-5" d="m264.85,112.47h-2.45v-2.45c0-1.76-1.43-3.19-3.19-3.19s-3.19,1.43-3.19,3.19v2.45h-2.45c-1.76,0-3.19,1.43-3.19,3.19s1.43,3.19,3.19,3.19h2.45v2.45c0,1.76,1.43,3.19,3.19,3.19s3.19-1.43,3.19-3.19v-2.45h2.45c1.76,0,3.19-1.43,3.19-3.19s-1.43-3.19-3.19-3.19Z"/>
    <path class="cls-5" d="m403.46,85.99l-1.74-1.74,1.74-1.74c1.24-1.24,1.24-3.26,0-4.51s-3.26-1.24-4.51,0l-1.74,1.74-1.74-1.74c-1.24-1.24-3.26-1.24-4.51,0s-1.24,3.26,0,4.51l1.74,1.74-1.74,1.74c-1.24,1.24-1.24,3.26,0,4.51s3.26,1.24,4.51,0l1.74-1.74,1.74,1.74c1.24,1.24,3.26,1.24,4.51,0s1.24-3.26,0-4.51Z"/>
    <path class="cls-1" d="m188.25,95.51c-7.36,0-13.34,5.97-13.34,13.34s5.97,13.34,13.34,13.34,13.34-5.97,13.34-13.34-5.97-13.34-13.34-13.34Zm0,22.34c-4.96,0-9-4.04-9-9s4.04-9.01,9-9.01,9.01,4.04,9.01,9.01-4.04,9-9.01,9Z"/>
    <path class="cls-1" d="m186.71,138.57c-.57,0-1.14-.02-1.72-.05-8.18-.45-15.7-4.06-21.16-10.16-2.43-2.72-2.21-6.89.51-9.33,2.72-2.43,6.89-2.21,9.33.51,3.11,3.47,7.39,5.53,12.05,5.78,4.66.25,9.14-1.32,12.61-4.43,3.47-3.11,5.53-7.39,5.78-12.05.25-4.66-1.32-9.14-4.43-12.61-2.43-2.72-2.21-6.89.51-9.33,2.72-2.43,6.89-2.21,9.33.51,5.47,6.1,8.23,13.97,7.78,22.15-.45,8.18-4.06,15.7-10.16,21.16-5.67,5.08-12.87,7.83-20.43,7.83Z"/>
    <path class="cls-1" d="m195.4,177.21c-3.65,0-6.6-2.96-6.6-6.6v-40.27c0-3.65,2.96-6.6,6.6-6.6s6.6,2.96,6.6,6.6v40.27c0,3.65-2.96,6.6-6.6,6.6Z"/>
    <path class="cls-5" d="m284.46,113.93c-.47-6.74-3.52-12.9-8.62-17.35-5.1-4.44-11.62-6.63-18.36-6.17-6.75.46-12.9,3.52-17.35,8.62-4.44,5.09-6.64,11.61-6.17,18.36.17,2.46.68,4.84,1.51,7.08,1.44,3.92,3.86,7.44,7.1,10.26,3.3,2.88,7.14,4.74,11.15,5.63,1.8.39,3.64.6,5.47.6,6.69,0,13.34-2.62,18.27-7.77.28-.29.56-.59.82-.9,4.45-5.09,6.64-11.61,6.18-18.36Zm-33.2,10.85c-2.43-2.13-3.9-5.07-4.12-8.29-.22-3.22.83-6.34,2.95-8.78,2.39-2.74,5.75-4.14,9.12-4.14,2.82,0,5.66.98,7.95,2.97,2.43,2.13,3.9,5.07,4.12,8.29.02.28.03.57.03.84,0,2.92-1.04,5.71-2.98,7.93-4.38,5.03-12.04,5.55-17.07,1.17Z"/>
    <path class="cls-5" d="m416.22,61.76c-5.82-5.07-13.27-7.58-20.97-7.06-7.7.53-14.74,4.03-19.82,9.85-5.07,5.82-7.58,13.27-7.05,20.97.52,7.7,4.02,14.74,9.84,19.81,5.47,4.77,12.24,7.11,18.98,7.11,4.03,0,8.06-.84,11.79-2.49,3.73-1.66,7.16-4.13,10.02-7.4,10.47-12.02,9.22-30.31-2.79-40.79Zm-7.17,32.11c-2.75,3.16-6.57,5.06-10.76,5.35-4.18.29-8.23-1.07-11.39-3.83-3.16-2.75-5.06-6.58-5.35-10.76-.29-4.18,1.08-8.23,3.83-11.39,2.76-3.16,6.58-5.06,10.76-5.35.37-.03.73-.04,1.1-.04,3.79,0,7.41,1.35,10.29,3.87,3.55,3.1,5.38,7.46,5.38,11.84,0,3.66-1.27,7.34-3.86,10.31Z"/>
    <path class="cls-5" d="m223.28,135c-1.54,0-3.09-.53-4.34-1.63-2.75-2.4-3.03-6.57-.64-9.32l21.83-25.03c2.4-2.75,6.57-3.03,9.32-.64,2.75,2.4,3.03,6.57.64,9.32l-21.83,25.03c-1.31,1.5-3.14,2.26-4.98,2.26Z"/>
    <path class="cls-5" d="m629.11,114.13c-1.54,0-3.09-.54-4.34-1.63-2.75-2.4-3.03-6.57-.64-9.32l12.12-13.9c2.4-2.75,6.57-3.03,9.32-.64,2.75,2.4,3.03,6.57.64,9.32l-12.12,13.9c-1.31,1.5-3.14,2.26-4.98,2.26Z"/>
    <path class="cls-5" d="m575.54,175.93c-1.54,0-3.09-.53-4.34-1.63-2.75-2.4-3.03-6.57-.64-9.32l13.05-14.96c2.4-2.75,6.57-3.03,9.32-.64,2.75,2.4,3.03,6.57.64,9.32l-13.05,14.96c-1.31,1.5-3.14,2.26-4.98,2.26Z"/>
    <path class="cls-5" d="m236.11,177.21c-1.54,0-3.09-.53-4.34-1.63-2.75-2.4-3.03-6.57-.64-9.32l35.95-41.23c2.4-2.75,6.57-3.04,9.32-.64,2.75,2.4,3.03,6.57.64,9.32l-35.95,41.23c-1.31,1.5-3.14,2.26-4.98,2.26Z"/>
    <path class="cls-5" d="m288.48,177.21c-1.67,0-3.34-.63-4.63-1.89l-16.89-16.6c-2.6-2.56-2.64-6.74-.08-9.34,2.56-2.6,6.74-2.64,9.34-.08l16.89,16.6c2.6,2.56,2.64,6.74.08,9.34-1.29,1.32-3,1.97-4.71,1.97Z"/>
    <path class="cls-1" d="m128.87,129.83c-3.65,0-6.6,2.96-6.6,6.6,0,15.39-12.52,27.92-27.92,27.92s-27.92-12.52-27.92-27.92V61.1c0-3.65-2.96-6.6-6.6-6.6s-6.6,2.96-6.6,6.6v75.34c0,22.68,18.45,41.13,41.13,41.13s41.13-18.45,41.13-41.13c0-3.65-2.96-6.6-6.6-6.6Z"/>
    <path class="cls-1" d="m94.35,114.32c-12.22,0-22.12,9.9-22.12,22.12s9.91,22.12,22.12,22.12,22.12-9.91,22.12-22.12-9.91-22.12-22.12-22.12Zm0,40.07c-9.9,0-17.95-8.05-17.95-17.95s8.06-17.95,17.95-17.95,17.95,8.06,17.95,17.95-8.06,17.95-17.95,17.95Z"/>
    <path class="cls-1" d="m716.22,119.35c-11.28,0-20.43,9.15-20.43,20.43s9.15,20.43,20.43,20.43,20.43-9.15,20.43-20.43-9.15-20.43-20.43-20.43Zm0,36.7c-8.96,0-16.26-7.29-16.26-16.26s7.29-16.26,16.26-16.26,16.26,7.3,16.26,16.26-7.29,16.26-16.26,16.26Z"/>
    <path class="cls-5" d="m520.85,54.49c-3.65,0-6.6,2.96-6.6,6.6v75.34c0,15.39-12.52,27.92-27.92,27.92-3.65,0-6.6,2.96-6.6,6.6s2.96,6.6,6.6,6.6c22.68,0,41.13-18.45,41.13-41.13V61.1c0-3.65-2.96-6.6-6.6-6.6Z"/>
    <path class="cls-1" d="m453.12,114.02c-3.65,0-6.6-2.96-6.6-6.6v-46.31c0-3.65,2.96-6.6,6.6-6.6s6.6,2.96,6.6,6.6v46.31c0,3.65-2.96,6.6-6.6,6.6Z"/>
    <path class="cls-1" d="m604.23,126.48c-3.65,0-6.6-2.96-6.6-6.6v-58.78c0-3.65,2.96-6.6,6.6-6.6s6.6,2.96,6.6,6.6v58.78c0,3.65-2.96,6.6-6.6,6.6Z"/>
    <path class="cls-1" d="m693.56,123.82c-3.65,0-6.6-2.96-6.6-6.6v-56.12c0-3.65,2.96-6.6,6.6-6.6s6.6,2.96,6.6,6.6v56.12c0,3.65-2.96,6.6-6.6,6.6Z"/>
    <path class="cls-5" d="m366.41,176.82c-3.65,0-6.6-2.96-6.6-6.6v-37.65c0-3.65,2.96-6.6,6.6-6.6s6.6,2.96,6.6,6.6v37.65c0,3.65-2.96,6.6-6.6,6.6Z"/>
    <rect class="cls-1" x="327.09" y="74.55" width="28.42" height="4.17"/>
    <rect class="cls-1" x="327.09" y="85.89" width="28.42" height="4.17"/>
    <path class="cls-5" d="m633.55,176.64c-1.69,0-3.38-.64-4.67-1.93-2.58-2.58-2.58-6.76,0-9.34,13.59-13.6,13.59-35.72,0-49.31-1.18-1.18-2.44-2.27-3.73-3.24-2.92-2.19-3.51-6.33-1.33-9.25,2.18-2.92,6.32-3.52,9.24-1.33,1.79,1.34,3.53,2.85,5.15,4.48,18.74,18.74,18.74,49.24,0,67.99-1.29,1.29-2.98,1.94-4.67,1.94Z"/>
    <path class="cls-5" d="m574.9,176.64c-1.69,0-3.38-.64-4.67-1.93-9.08-9.08-14.08-21.15-14.08-33.99s5-24.91,14.08-33.99c2.45-2.45,5.17-4.64,8.06-6.5,3.07-1.97,7.16-1.08,9.13,1.99,1.97,3.07,1.08,7.16-1.99,9.13-2.1,1.35-4.07,2.93-5.85,4.72-6.59,6.59-10.21,15.34-10.21,24.65s3.63,18.07,10.21,24.65c2.58,2.58,2.58,6.76,0,9.34-1.29,1.29-2.98,1.93-4.67,1.93Z"/>
    <path class="cls-1" d="m716.13,178.29c-9.86,0-19.73-3.76-27.24-11.26-2.58-2.58-2.58-6.76,0-9.34,2.58-2.58,6.76-2.58,9.34,0,4.78,4.78,11.14,7.41,17.9,7.41s13.12-2.63,17.9-7.41c9.87-9.87,9.87-25.93,0-35.8-4.78-4.78-11.14-7.41-17.9-7.41s-13.12,2.63-17.9,7.41c-2.58,2.58-6.76,2.58-9.34,0-2.58-2.58-2.58-6.76,0-9.34,7.28-7.28,16.95-11.28,27.24-11.28s19.96,4.01,27.24,11.28c15.02,15.02,15.02,39.46,0,54.48-7.51,7.51-17.37,11.26-27.24,11.26Z"/>
    <path class="cls-5" d="m736.66,90.64c-3.65,0-6.6-2.96-6.6-6.6v-22.94c0-3.65,2.96-6.6,6.6-6.6s6.6,2.96,6.6,6.6v22.94c0,3.65-2.96,6.6-6.6,6.6Z"/>
    <path class="cls-5" d="m142.27,98.44H34.36c-3.65,0-6.6-2.96-6.6-6.6s2.96-6.6,6.6-6.6h107.91c3.65,0,6.6,2.96,6.6,6.6s-2.96,6.6-6.6,6.6Z"/>
    <path class="cls-1" d="m411.86,176.82h-90.9c-3.65,0-6.6-2.96-6.6-6.6s2.96-6.6,6.6-6.6h90.9c3.65,0,6.6,2.96,6.6,6.6s-2.96,6.6-6.6,6.6Z"/>
    <path class="cls-1" d="m411.86,139.17h-90.9c-3.65,0-6.6-2.96-6.6-6.6s2.96-6.6,6.6-6.6h90.9c3.65,0,6.6,2.96,6.6,6.6s-2.96,6.6-6.6,6.6Z"/>
  </g>
  <path class="cls-5" d="m294.79,201.7c0,2.32,0,4.54-.03,6.48-.03,1.66-1.14,2.6-2.39,2.6-.48,0-1-.14-1.49-.42-1.59-.93-7.76-9.52-10.94-14.23.14,4.57.1,9.18.03,12.02-.03,1.66-.83,2.7-2.39,2.7s-2.32-1-2.36-2.63c-.07-4.09-.14-8.49-.14-13.02,0-1.87,0-3.78.03-5.68.03-2.15.97-2.94,2.49-2.94.87,0,1.52.35,2.04.93,1.25,1.35,6.65,9.11,10.32,14.37-.07-3.6-.14-9.63-.07-12.92.03-1.49.87-2.46,2.39-2.46,1.42,0,2.36,1.04,2.39,2.53.07,3.88.1,8.45.1,12.68Z"/>
  <path class="cls-1" d="m316.99,208.49c0,1.25-.45,2.04-1.56,2.22-1.32.21-2.18-.14-2.74-1.18-1.14.93-2.94,1.39-4.71,1.39-1.25,0-2.46-.24-3.46-.66-3.32-1.45-4.88-4.43-4.88-7.9,0-.52.03-1.07.1-1.63.52-3.81,2.94-6.68,6.58-7.41.73-.14,1.49-.24,2.25-.24,1.35,0,2.67.24,3.78.8.42-.45,1.04-.62,1.8-.59,1.73.07,2.39,1.18,2.36,3.19-.03,1.42-.07,2.77-.07,4.16,0,2.15.1,4.29.45,6.65.07.45.1.87.1,1.21Zm-8.69-1.94c1.21,0,2.49-.31,3.46-1.18-.24-2.36-.24-4.74-.21-6.96-1.11-.73-2.22-.87-3.22-.87-2.63,0-4.02,2.22-4.02,4.71s1.39,4.29,3.98,4.29Z"/>
  <path class="cls-5" d="m338.16,197.31c-2.32,6.82-5.09,14.41-10.25,19.92-.87.93-1.77,1.32-2.53,1.32s-1.42-.35-1.87-.83c-.76-.83-.55-2.32.66-3.74,1.14-1.35,2.18-2.67,3.08-4.05-2.01-4.95-4.85-11.53-5.33-12.88-.14-.45-.24-.9-.24-1.32,0-1.04.48-1.94,1.52-2.25.35-.1.69-.17,1-.17.94,0,1.66.52,2.25,1.8.62,1.35,2.15,5.44,3.64,9.8,1.25-2.7,2.32-5.68,3.43-9.28.48-1.59,1.35-2.36,2.49-2.36,1.45,0,2.49.83,2.49,2.25,0,.52-.1,1.14-.35,1.8Z"/>
  <path class="cls-1" d="m342.69,202.19c0-5.78,3.26-9.04,8.9-9.04s8.9,3.26,8.9,9.07c0,4.85-2.53,8.69-8.9,8.69s-8.9-3.84-8.9-8.73Zm13.2-.17c-.03-2.77-1.66-4.64-4.29-4.64-2.32,0-4.29,1.87-4.29,4.64,0,2.56,1.25,4.71,4.29,4.71s4.33-2.11,4.29-4.71Z"/>
  <path class="cls-5" d="m365.76,209.57c-.76-.38-1.11-1.11-1.11-1.84,0-1.28,1.07-2.56,2.81-1.94,1.49.52,3.22.87,4.5.87,1.14,0,1.94-.21,1.94-.76,0-.59-1.66-1.25-4.36-2.22-3.81-1.35-4.61-3.22-4.61-5.51,0-3.33,2.77-5.16,6.75-5.16,1.94,0,4.16.66,5.37,1.35.76.45,1.11,1.11,1.11,1.8,0,1.25-1.18,2.42-3.15,1.8-.9-.28-2.15-.66-3.53-.66-1.45,0-1.77.48-1.77,1,0,.55.9.9,3.32,1.87,4.23,1.66,5.82,3.08,5.82,5.47,0,3.36-2.29,5.3-7.07,5.3-2.53,0-4.61-.66-6.03-1.39Z"/>
  <path class="cls-1" d="m391.53,210.92c-2.32,0-4.68-.62-6.06-1.84-1.77-1.56-2.98-3.81-2.98-7.1,0-5.58,3.26-8.87,8.52-8.87,4.19,0,7.59,2.56,7.59,6.72,0,1.59-.66,2.87-1.9,3.53-1.8.94-6.93.83-9.52.62,0,1.63,2.04,2.77,4.36,2.77,1.04,0,2.15-.21,3.15-.73,1.39-.73,2.6-.87,3.26-.03.69.9.21,2.22-1.04,3.33-1.25,1.07-3.29,1.59-5.37,1.59Zm2.56-11.78c0-.21-.07-.45-.21-.69-.31-.48-1.25-1.18-2.87-1.18-2.01,0-3.53,1.11-3.71,2.74,1.49.21,3.78.21,5.3.07.97-.1,1.49-.45,1.49-.94Z"/>
  <path class="cls-5" d="m433.71,208.77c0,.55-.24,1-.59,1.35-.42.42-1,.66-1.66.66-.59,0-1.21-.21-1.73-.66-.87-.69-4.23-5.13-5.47-7.31-1.45.07-2.98.07-4.36,0v5.51c0,1.35-.73,2.39-2.32,2.49h-.14c-1.14,0-2.39-.83-2.39-2.46.03-4.88-.03-14.44-.07-18.25,0-1.32.45-2.29,1.28-2.7,1.35-.66,3.98-1,6.62-1,4.36,0,7.2.8,9.04,3.57.9,1.35,1.35,3.01,1.35,4.68,0,2.88-1.39,5.72-4.12,7.07,1.32,1.87,3.08,4.19,3.84,5.23.52.69.73,1.32.73,1.84Zm-11.26-10.46c3.46,0,5.89-.66,5.85-3.57-.03-2.87-2.22-3.71-4.92-3.71-1.14,0-2.36.14-3.53.35l.03,6.89c.9.03,1.77.03,2.56.03Z"/>
  <path class="cls-1" d="m446.21,210.92c-2.32,0-4.68-.62-6.06-1.84-1.77-1.56-2.98-3.81-2.98-7.1,0-5.58,3.26-8.87,8.52-8.87,4.19,0,7.59,2.56,7.59,6.72,0,1.59-.66,2.87-1.91,3.53-1.8.94-6.93.83-9.52.62,0,1.63,2.04,2.77,4.36,2.77,1.04,0,2.15-.21,3.15-.73,1.39-.73,2.6-.87,3.26-.03.69.9.21,2.22-1.04,3.33-1.25,1.07-3.29,1.59-5.37,1.59Zm2.56-11.78c0-.21-.07-.45-.21-.69-.31-.48-1.25-1.18-2.87-1.18-2.01,0-3.53,1.11-3.71,2.74,1.49.21,3.78.21,5.3.07.97-.1,1.49-.45,1.49-.94Z"/>
  <path class="cls-5" d="m474.44,208.49c0,1.25-.45,2.04-1.56,2.22-1.32.21-2.18-.14-2.74-1.18-1.14.93-2.94,1.39-4.71,1.39-1.25,0-2.46-.24-3.46-.66-3.32-1.45-4.88-4.43-4.88-7.9,0-.52.03-1.07.1-1.63.52-3.81,2.94-6.68,6.58-7.41.73-.14,1.49-.24,2.25-.24,1.35,0,2.67.24,3.78.8.42-.45,1.04-.62,1.8-.59,1.73.07,2.39,1.18,2.36,3.19-.03,1.42-.07,2.77-.07,4.16,0,2.15.1,4.29.45,6.65.07.45.1.87.1,1.21Zm-8.69-1.94c1.21,0,2.49-.31,3.46-1.18-.24-2.36-.24-4.74-.21-6.96-1.11-.73-2.22-.87-3.22-.87-2.63,0-4.02,2.22-4.02,4.71s1.39,4.29,3.98,4.29Z"/>
  <path class="cls-1" d="m480.09,203.57c-.14-2.77-.17-5.2-.17-7.34,0-2.7.07-5.02.07-7.07s1.04-3.01,2.42-3.01c1.7,0,2.49,1,2.46,2.84-.07,4.05-.03,10.91.03,13.37.07,2.08.24,3.15.9,4.02.52.69,1.04,1.32,1.04,2.32,0,1.49-1.04,2.22-2.25,2.22-.87,0-1.8-.38-2.49-1.07-1.14-1.18-1.87-3.12-2.01-6.27Z"/>
  <path class="cls-5" d="m507.45,208.49c0,1.25-.45,2.04-1.56,2.22-1.32.21-2.18-.14-2.74-1.18-1.14.93-2.94,1.39-4.71,1.39-1.25,0-2.46-.24-3.46-.66-3.32-1.45-4.88-4.43-4.88-7.9,0-.52.03-1.07.1-1.63.52-3.81,2.94-6.68,6.58-7.41.73-.14,1.49-.24,2.25-.24,1.35,0,2.67.24,3.78.8.42-.45,1.04-.62,1.8-.59,1.73.07,2.39,1.18,2.36,3.19-.03,1.42-.07,2.77-.07,4.16,0,2.15.1,4.29.45,6.65.07.45.1.87.1,1.21Zm-8.69-1.94c1.21,0,2.49-.31,3.46-1.18-.24-2.36-.24-4.74-.21-6.96-1.11-.73-2.22-.87-3.22-.87-2.63,0-4.02,2.22-4.02,4.71s1.39,4.29,3.98,4.29Z"/>
</svg>